<svg width="24" height="23" viewBox="0 0 24 23" fill="none" xmlns="http://www.w3.org/2000/svg">
<path d="M17.592 0.855999C15.448 0.903999 13.632 1.624 12.144 3.016L12 3.16L11.856 3.016C10.32 1.576 8.416 0.855999 6.144 0.855999C5.056 0.855999 4.024 1.176 3.048 1.816C2.136 2.424 1.4 3.232 0.84 4.24C0.28 5.232 0 6.272 0 7.36C0 8.432 0.12 9.328 0.36 10.048C0.616 10.832 1.08 11.64 1.752 12.472C2.408 13.272 3.4 14.272 4.728 15.472L7.728 18.16C9.488 19.744 10.736 20.904 11.472 21.64L12 22.144L12.528 21.64C14.4 19.8 16.256 18.088 18.096 16.504L18.792 15.904C20.04 14.848 21.032 13.88 21.768 13C22.552 12.088 23.12 11.184 23.472 10.288C23.824 9.376 24 8.4 24 7.36C24 6.272 23.72 5.232 23.16 4.24C22.6 3.232 21.864 2.424 20.952 1.816C19.976 1.176 18.944 0.855999 17.856 0.855999H17.592ZM17.856 2.344C18.672 2.344 19.448 2.592 20.184 3.088C20.872 3.552 21.432 4.176 21.864 4.96C22.296 5.728 22.512 6.528 22.512 7.36C22.512 8.608 22.176 9.776 21.504 10.864C20.832 11.952 19.688 13.184 18.072 14.56L17.112 15.376C15.64 16.624 13.992 18.128 12.168 19.888L12 20.056L11.328 19.408L8.232 16.576L5.736 14.368C4.504 13.264 3.6 12.368 3.024 11.68C2.432 10.96 2.024 10.272 1.8 9.616C1.608 9.024 1.512 8.272 1.512 7.36C1.512 6.528 1.72 5.728 2.136 4.96C2.568 4.176 3.136 3.552 3.84 3.088C4.56 2.592 5.328 2.344 6.144 2.344C8.32 2.344 10.08 3.144 11.424 4.744L12 5.416L12.576 4.744C13.92 3.144 15.68 2.344 17.856 2.344Z" fill="black" fill-opacity="0.4"/>
</svg>
