<svg width="21" height="22" viewBox="0 0 21 22" fill="none" xmlns="http://www.w3.org/2000/svg">
<path fill-rule="evenodd" clip-rule="evenodd" d="M21 7.20242V14.7612C20.9626 15.0591 20.9251 15.357 20.9251 15.6549C20.7754 18.8572 18.8736 20.9052 15.7032 21.3515C15.2186 21.4263 14.7341 21.4636 14.2859 21.5H6.71405C6.41563 21.4636 6.1172 21.4263 5.8562 21.4263C2.64839 21.2768 0.560407 19.3783 0.149705 16.2134C0.0748523 15.7296 0.0374261 15.2449 0 14.7986V7.23978C0.0374261 6.94187 0.0748523 6.64397 0.0748523 6.34606C0.224557 3.1438 2.12639 1.05845 5.29678 0.649445C5.78135 0.574723 6.26691 0.537361 6.71405 0.5H14.2859C14.5844 0.537361 14.8828 0.574723 15.1438 0.574723C18.3516 0.723185 20.4406 2.62271 20.8513 5.78761C20.8877 6.27134 20.9251 6.75605 21 7.20242ZM10.4813 2.43591C8.98917 2.43591 7.53447 2.39953 6.04235 2.47327C5.37163 2.51161 4.62607 2.66007 4.02922 2.92062C2.5371 3.59017 1.97768 4.89389 1.93926 6.42078C1.90282 9.47359 1.90282 12.5274 1.93926 15.5802C1.93926 16.2134 2.1264 16.8839 2.38739 17.4797C3.05909 18.9683 4.40151 19.5267 5.93106 19.5641C8.95272 19.6015 11.9734 19.6388 14.9941 19.5641C17.4563 19.5267 18.9485 18.0382 18.9859 15.5802C19.0607 12.5647 19.0233 9.51096 18.9859 6.45814C18.9859 5.82497 18.7997 5.15443 18.5378 4.55862C17.8296 3.0327 16.4862 2.51161 14.9202 2.47327C13.4281 2.39953 11.936 2.43591 10.4813 2.43591Z" fill="#333333"/>
<path fill-rule="evenodd" clip-rule="evenodd" d="M16 11.0188C16 14.1021 13.5342 16.5 10.4624 16.5C7.42775 16.5 5 14.0257 5 10.9424C5 7.89834 7.46581 5.46225 10.5005 5.50044C13.5722 5.46225 16 7.93653 16 11.0188ZM14.065 10.9806C14.065 9.00181 12.4725 7.40288 10.5005 7.40288C8.52745 7.40288 6.93499 9.00181 6.93499 10.9806C6.93499 12.9604 8.52745 14.5584 10.5005 14.5584C12.4725 14.5584 14.065 12.9604 14.065 10.9806Z" fill="#333333"/>
<path fill-rule="evenodd" clip-rule="evenodd" d="M18 5.95682C18 6.79358 17.3383 7.5 16.4994 7.5C15.706 7.5 15 6.83781 15 6.04527C15 5.20735 15.6617 4.50209 16.4994 4.50209C17.294 4.45787 18 5.12006 18 5.95682Z" fill="#333333"/>
</svg>
