<svg width="108" height="26" viewBox="0 0 108 26" fill="none" xmlns="http://www.w3.org/2000/svg">
<path fill-rule="evenodd" clip-rule="evenodd" d="M37.6068 25.0431C37.2026 24.9713 36.7933 24.9151 36.3941 24.8205C32.7931 23.996 30.0821 20.8311 29.7258 17.0487C29.2786 12.2852 32.4697 8.02881 37.0358 7.34923C39.1165 7.03654 41.0727 7.45499 42.8627 8.61373C42.9221 8.6529 42.9815 8.69142 43.0459 8.73059C43.0623 8.74168 43.0788 8.74168 43.1268 8.75278V7.73896H47.9999V24.5587H43.1381V23.5449C42.6638 23.8008 42.2324 24.0625 41.7795 24.2741C40.9438 24.6755 40.0601 24.9092 39.1379 24.9935C39.0786 24.9987 39.0192 25.0268 38.9604 25.0379C38.5076 25.0431 38.0547 25.0431 37.6068 25.0431ZM43.1217 15.9677C43.0731 15.7281 43.0358 15.277 42.9006 14.8585C41.9576 11.8837 38.2221 10.8418 35.806 12.8642C33.7905 14.5524 33.7526 17.6108 35.7258 19.3492C37.3213 20.7534 39.7039 20.854 41.391 19.5614C42.4907 18.731 43.068 17.5945 43.1217 15.9677Z" fill="black"/>
<path fill-rule="evenodd" clip-rule="evenodd" d="M89.4329 25.0431C88.8341 24.9204 88.2188 24.8649 87.6472 24.6698C84.1984 23.5003 82.0889 21.0719 81.5653 17.3572C80.8798 12.4945 84.1117 8.08349 88.8176 7.35386C90.912 7.03082 92.876 7.45437 94.6788 8.62386C94.7383 8.66302 94.7971 8.70152 94.8622 8.74068C94.873 8.74655 94.8945 8.74655 94.9318 8.74655V7.73826H99.7894V24.553H94.9539V23.5283C94.8679 23.5675 94.8085 23.5779 94.7655 23.6119C93.588 24.397 92.3094 24.8649 90.912 24.9928C90.869 24.9987 90.831 25.0209 90.788 25.0379C90.3346 25.0431 89.8812 25.0431 89.4329 25.0431ZM90.2746 11.821C90.0431 11.8595 89.5954 11.8935 89.1793 12.0266C87.6035 12.5285 86.5191 13.5811 86.1574 15.2682C85.8064 16.9062 86.3192 18.2983 87.5441 19.3842C89.309 20.9551 92.0552 20.8272 93.7075 19.1284C95.1752 17.6189 95.3257 15.2799 94.0471 13.6033C93.146 12.4058 91.9319 11.8543 90.2746 11.821Z" fill="black"/>
<path fill-rule="evenodd" clip-rule="evenodd" d="M18.9514 0C18.9142 1.44258 18.7982 2.8695 18.4966 4.27879C17.7283 7.88263 16.1131 11.0021 13.6718 13.6484C13.6185 13.7097 13.5657 13.7711 13.5024 13.8436C15.9437 17.3364 18.3799 20.8293 20.8422 24.3607C20.7256 24.3724 20.6517 24.3829 20.5779 24.3829C18.5543 24.3829 16.5369 24.3888 14.5139 24.3777C14.4028 24.3777 14.249 24.3111 14.1906 24.2164C11.58 20.4892 8.97433 16.7568 6.36866 13.0185C6.35253 12.9969 6.3426 12.9689 6.31592 12.9186C6.56476 12.7182 6.81856 12.5283 7.06802 12.3168C8.00504 11.5152 9.01094 10.7848 9.85922 9.89376C12.3737 7.24228 13.6396 4.00006 13.719 0.250657C13.719 0.167104 13.7147 0.0835522 13.7091 0H18.9514Z" fill="black"/>
<path fill-rule="evenodd" clip-rule="evenodd" d="M5.68421 0C5.68421 0.122098 5.67828 0.239626 5.67828 0.362378V23.9777V24.3622C5.58266 24.3733 5.50419 24.3844 5.42506 24.3844H0.247942C0.162877 24.3844 0.0844059 24.3622 0 24.3453V0H5.68421Z" fill="black"/>
<path fill-rule="evenodd" clip-rule="evenodd" d="M27.7894 0C27.7894 0.12221 27.7838 0.239845 27.7838 0.362708V23.9995V24.3844H22.7368V0H27.7894Z" fill="black"/>
<path fill-rule="evenodd" clip-rule="evenodd" d="M108 22.0719C107.922 22.356 107.867 22.6522 107.768 22.9302C107.225 24.4381 105.681 25.3079 104.17 24.9715C102.648 24.6297 101.586 23.1449 101.691 21.5038C101.796 19.9028 103.041 18.5919 104.574 18.4642C106.245 18.3256 107.667 19.5025 107.945 21.2483C107.956 21.3122 107.978 21.3761 107.994 21.4393C108 21.6486 108 21.8572 108 22.0719Z" fill="black"/>
<path fill-rule="evenodd" clip-rule="evenodd" d="M62.5264 25.0203V7.75725H67.4235V9.62184C67.4952 9.56489 67.5329 9.54747 67.5547 9.51263C68.4995 8.25505 69.7605 7.58037 71.2459 7.35726C72.9003 7.10601 74.5213 7.2715 76.0279 8.07214C78.3431 9.30158 79.5388 11.2975 79.5605 14.013C79.5938 17.6329 79.572 21.2516 79.572 24.8769C79.572 24.9225 79.5663 24.9747 79.5605 25.0431H74.6358V24.7054C74.6358 21.8291 74.6467 18.9481 74.625 16.0719C74.6192 15.4883 74.5597 14.888 74.4068 14.3279C74.0793 13.081 73.2553 12.3547 72.043 12.1323C71.251 11.9836 70.459 12.0238 69.7061 12.3266C68.3626 12.8693 67.6909 13.9507 67.5387 15.4139C67.5112 15.6886 67.5112 15.9687 67.5112 16.2427V24.6484V25.0317C65.8293 25.0203 64.1922 25.0203 62.5264 25.0203Z" fill="black"/>
<path fill-rule="evenodd" clip-rule="evenodd" d="M55.3521 7.27161V9.45939C56.6129 7.93511 58.1831 7.31677 60 7.24902V12.2031C59.5429 12.2941 59.0808 12.3559 58.6396 12.4807C57.8514 12.7019 57.1432 13.1044 56.539 13.7055C55.7773 14.4593 55.3841 15.3825 55.389 16.5109C55.3995 19.0162 55.394 21.5161 55.394 24.0214V24.384H50.5264V7.27161H55.3521Z" fill="black"/>
<path fill-rule="evenodd" clip-rule="evenodd" d="M103.937 11.9941C102.694 11.9941 101.684 10.9259 101.684 9.60484C101.684 8.30571 102.715 7.23751 103.968 7.24912C105.211 7.26073 106.242 8.34957 106.231 9.63838C106.212 10.9478 105.19 11.9941 103.937 11.9941ZM103.959 11.5542C104.958 11.5426 105.748 10.673 105.737 9.58291C105.727 8.51599 104.937 7.67872 103.948 7.67872C102.957 7.67872 102.137 8.57018 102.137 9.62677C102.137 10.7169 102.936 11.5645 103.959 11.5542Z" fill="black"/>
<path fill-rule="evenodd" clip-rule="evenodd" d="M104.136 8.56738C104.24 8.56738 104.318 8.57816 104.412 8.61317C104.488 8.63607 104.554 8.68186 104.62 8.72765C104.684 8.77344 104.724 8.83136 104.75 8.90004C104.776 8.97008 104.79 9.03877 104.79 9.10745C104.79 9.22193 104.764 9.32564 104.71 9.40645C104.66 9.48725 104.566 9.55459 104.436 9.60173C104.502 9.61251 104.542 9.6354 104.58 9.67042C104.62 9.70544 104.646 9.73911 104.672 9.77412C104.698 9.81992 104.71 9.85493 104.724 9.9115C104.738 9.95729 104.738 10.0152 104.75 10.061V10.1755C104.75 10.2226 104.75 10.2563 104.764 10.3034C104.764 10.3479 104.776 10.3829 104.79 10.4287C104.804 10.4637 104.814 10.4987 104.842 10.5324H104.358C104.332 10.4758 104.318 10.3937 104.306 10.3142C104.306 10.2334 104.294 10.1418 104.28 10.0731C104.268 9.96941 104.228 9.90072 104.174 9.85493C104.122 9.80779 104.032 9.7849 103.914 9.7849H103.43V10.5445H102.947V8.59028H104.136V8.56738ZM103.954 9.45224C104.07 9.45224 104.15 9.42934 104.202 9.3822C104.254 9.33641 104.28 9.26907 104.28 9.16402C104.28 9.07244 104.254 9.00375 104.202 8.95796C104.15 8.91217 104.058 8.88927 103.954 8.88927H103.418V9.44012H103.954V9.45224Z" fill="black"/>
</svg>
