<svg width="134" height="40" viewBox="0 0 134 40" fill="none" xmlns="http://www.w3.org/2000/svg">
<path d="M10.4446 16.4693C10.4446 18.1229 12.5605 19.3743 16.7699 20.2234C19.8987 20.8715 22.1947 21.8324 23.6128 23.1508C25.0309 24.4693 25.7512 26.2123 25.7512 28.4469C25.7512 31.0167 24.7833 33.1396 22.8925 34.8156C21.0017 36.4916 18.3906 37.3184 15.1492 37.3184C12.0428 37.3184 9.47673 36.5586 7.42835 35.0614C5.37997 33.5642 3.87182 31.6424 2.85889 29.3184L8.32873 25.8771C8.93649 27.6424 9.83688 29.0279 11.0074 30.0558C12.1779 31.1061 13.596 31.6201 15.2617 31.6201C16.3872 31.6201 17.3551 31.3519 18.2105 30.838C19.0658 30.324 19.4935 29.5866 19.4935 28.6704C19.4935 27.8212 19.0433 27.1285 18.1429 26.5922C17.2426 26.0782 15.7794 25.6089 13.7536 25.229C7.51839 24.0223 4.38954 21.229 4.38954 16.8938C4.38954 14.5028 5.35746 12.6033 7.3158 11.2179C9.27414 9.83239 11.6151 9.13965 14.4063 9.13965C17.2651 9.13965 19.5385 9.67596 21.2493 10.7486C22.96 11.8212 24.3781 13.5195 25.5036 15.8436L20.574 18.7486C19.3585 15.6424 17.3326 14.0782 14.5189 14.0782C11.7952 14.1229 10.4446 14.905 10.4446 16.4693Z" fill="black"/>
<path d="M66.1783 17.922V36.5589H59.3579V20.0673C59.3579 16.7376 57.9623 15.084 55.1485 15.084C53.5954 15.084 52.3348 15.665 51.3894 16.8047C50.444 17.9443 49.9488 19.598 49.9488 21.7432V36.5589H43.1284V20.179C43.1284 16.7823 41.6878 15.084 38.8065 15.084C37.4109 15.084 36.1954 15.665 35.205 16.827C34.2146 17.989 33.7194 19.598 33.7194 21.6315V36.5589H26.8989V9.922H33.7194V13.4751C35.5877 10.6147 38.1988 9.18457 41.5077 9.18457C45.2668 9.18457 47.7429 10.7041 48.9809 13.7432C50.8942 10.7041 53.7529 9.18457 57.5346 9.18457C60.2807 9.18457 62.3967 9.96669 63.9273 11.5533C65.458 13.1399 66.1783 15.2404 66.1783 17.922Z" fill="black"/>
<path d="M68.9473 26.4805V9.94422H75.7677V24.9386C75.7677 28.9833 77.591 31.0168 81.2375 31.0168C83.1058 31.0168 84.614 30.3465 85.762 28.9833C86.8875 27.6202 87.4727 25.8772 87.4727 23.7096V9.92188H94.2931V36.5587H87.4727V32.38C85.6719 35.6649 82.8132 37.3185 78.919 37.3185C75.9928 37.3185 73.6068 36.38 71.761 34.4805C69.8702 32.5811 68.9473 29.8995 68.9473 26.4805Z" fill="black"/>
<path d="M123.848 3.44141V36.5587H117.028V32.8045C116.262 34.123 115.159 35.2179 113.696 36.0448C112.233 36.8939 110.522 37.2962 108.587 37.2962C104.805 37.2962 101.654 36.0224 99.1551 33.4749C96.6565 30.9274 95.396 27.5084 95.396 23.2179C95.396 18.9945 96.7241 15.5978 99.3802 13.0057C102.036 10.4358 105.098 9.13973 108.609 9.13973C112.571 9.13973 115.385 10.4805 117.05 13.1621V3.44141H123.848ZM104.49 28.8045C105.931 30.257 107.731 30.9721 109.892 30.9721C112.053 30.9721 113.854 30.257 115.295 28.8045C116.735 27.352 117.455 25.4973 117.455 23.2403C117.455 20.9833 116.735 19.1286 115.295 17.676C113.854 16.2235 112.053 15.5084 109.892 15.5084C107.731 15.5084 105.931 16.2235 104.49 17.676C103.049 19.1286 102.329 20.9833 102.329 23.2403C102.329 25.4973 103.049 27.352 104.49 28.8045Z" fill="black"/>
<path d="M128.485 8.78227C127.045 8.78227 125.852 7.62026 125.852 6.16775C125.852 4.71523 127.022 3.55322 128.485 3.55322C129.926 3.55322 131.119 4.71523 131.119 6.16775C131.119 7.62026 129.926 8.78227 128.485 8.78227ZM128.485 3.82138C127.18 3.82138 126.122 4.87166 126.122 6.16775C126.122 7.46384 127.18 8.51412 128.485 8.51412C129.791 8.51412 130.849 7.46384 130.849 6.16775C130.849 4.87166 129.791 3.82138 128.485 3.82138Z" fill="black"/>
<path d="M128.778 4.91602C128.89 4.91602 129.003 4.93836 129.093 4.96071C129.183 5.0054 129.273 5.05009 129.341 5.11713C129.408 5.18417 129.453 5.25121 129.498 5.3406C129.543 5.42998 129.543 5.51937 129.543 5.60875C129.543 5.76518 129.521 5.87691 129.453 5.98864C129.386 6.10037 129.296 6.18976 129.138 6.23445C129.206 6.2568 129.273 6.27914 129.318 6.32384C129.363 6.36853 129.408 6.41322 129.431 6.45791C129.453 6.50261 129.476 6.56965 129.498 6.63669C129.521 6.70372 129.521 6.77076 129.521 6.8378C129.521 6.8825 129.521 6.92719 129.521 6.97188C129.521 7.01657 129.521 7.08361 129.543 7.12831C129.543 7.19534 129.566 7.24004 129.566 7.28473C129.588 7.32942 129.588 7.37412 129.633 7.41881H129.07C129.048 7.32942 129.025 7.24004 129.003 7.12831C129.003 7.01657 128.98 6.90484 128.98 6.81546C128.958 6.68138 128.913 6.59199 128.868 6.52495C128.8 6.45791 128.71 6.43557 128.553 6.43557H127.99V7.41881H127.427V4.91602H128.778ZM128.575 6.05568C128.71 6.05568 128.8 6.03333 128.868 5.96629C128.935 5.89926 128.958 5.80987 128.958 5.69814C128.958 5.56406 128.935 5.47467 128.868 5.42998C128.8 5.38529 128.71 5.3406 128.575 5.3406H127.967V6.05568H128.575Z" fill="black"/>
</svg>
