<svg width="23" height="22" viewBox="0 0 23 22" fill="none" xmlns="http://www.w3.org/2000/svg">
<path fill-rule="evenodd" clip-rule="evenodd" d="M23 17.1132C22.7331 17.2623 22.5417 17.4498 22.3131 17.4873C21.741 17.6738 21.1307 17.8603 20.5213 17.9353C19.9865 18.0103 19.7579 18.2718 19.6431 18.7573C19.4527 19.5429 19.4527 19.5429 18.652 19.3929C17.1644 19.1314 15.8289 19.3929 14.6464 20.3274C13.8457 20.962 12.9685 21.411 11.8999 21.486C10.8705 21.561 9.91671 21.336 9.07773 20.7755C8.77255 20.589 8.50565 20.4024 8.23875 20.2159C7.09459 19.3179 5.79734 19.1689 4.38628 19.4304C3.62283 19.5804 3.58557 19.5804 3.43247 18.8698C3.31766 18.3093 3.05075 18.0478 2.47867 17.9728C1.90659 17.8978 1.37279 17.7113 0.838983 17.5613C0.571072 17.4873 0.380715 17.2998 0 17.1132C0.418988 17.0007 0.724164 16.9642 0.991067 16.8517C3.1273 16.1047 4.50009 14.6096 5.33907 12.628C5.68252 11.8809 5.41662 11.2829 4.69145 10.9089C4.46181 10.7974 4.23318 10.7224 3.96628 10.6099C3.66111 10.4983 3.3942 10.4233 3.08903 10.2733C2.82212 10.1243 2.40213 10.0128 2.59349 9.63879C2.74558 9.30227 3.1273 9.26477 3.50902 9.41379C3.85247 9.52629 4.23318 9.63879 4.61491 9.67629C5.41662 9.7503 5.68252 9.45129 5.64525 8.66673C5.60698 7.69567 5.53043 6.72361 5.56871 5.75156C5.64525 3.43442 6.86495 1.86532 9.00118 1.04228C11.4426 0.108711 13.8457 0.332728 15.9054 2.08835C17.393 3.35942 17.7365 5.04201 17.6217 6.83513C17.5834 7.50817 17.5834 8.21771 17.5068 8.89075C17.4686 9.33977 17.6599 9.56379 18.0416 9.60129C18.4989 9.60129 18.9572 9.48879 19.4527 9.41379C19.7579 9.37727 20.0631 9.33977 20.33 9.41379C20.6734 9.52629 20.75 9.7878 20.4065 10.0128C20.0631 10.1993 19.7196 10.3858 19.3379 10.4983C17.5451 11.0964 17.2399 11.7684 18.1937 13.376C19.2623 15.1701 20.6734 16.5152 22.8479 16.9642C22.8469 17.0007 22.8852 17.0382 23 17.1132Z" fill="#333333"/>
</svg>
