<svg width="76" height="16" viewBox="0 0 76 16" fill="none" xmlns="http://www.w3.org/2000/svg">
<path d="M8 12.256L3.6 14.944L4.8 9.904L0.848 6.544L6 6.144L8 1.392L10 6.144L15.152 6.544L11.2 9.904L12.4 14.944L8 12.256Z" fill="#2D7391"/>
<path d="M23 12.256L18.6 14.944L19.8 9.904L15.848 6.544L21 6.144L23 1.392L25 6.144L30.152 6.544L26.2 9.904L27.4 14.944L23 12.256Z" fill="#2D7391"/>
<path d="M38 12.256L33.6 14.944L34.8 9.904L30.848 6.544L36 6.144L38 1.392L40 6.144L45.152 6.544L41.2 9.904L42.4 14.944L38 12.256Z" fill="#2D7391"/>
<path d="M53 12.256L48.6 14.944L49.8 9.904L45.848 6.544L51 6.144L53 1.392L55 6.144L60.152 6.544L56.2 9.904L57.4 14.944L53 12.256Z" fill="#2D7391"/>
<path d="M68 12.256L63.6 14.944L64.8 9.904L60.848 6.544L66 6.144L68 1.392L70 6.144L75.152 6.544L71.2 9.904L72.4 14.944L68 12.256Z" fill="#F3F1EF"/>
</svg>
