<svg width="90" height="23" viewBox="0 0 90 23" fill="none" xmlns="http://www.w3.org/2000/svg">
<path fill-rule="evenodd" clip-rule="evenodd" d="M89.7036 5.45301C88.6942 1.5495 86.2436 0 82.8984 0C80.1882 0 76.7866 1.5495 76.7866 5.28082C76.7866 7.69137 78.4297 9.58595 81.1109 10.0741L83.6482 10.533C85.3784 10.8485 85.8687 11.5088 85.8687 12.3985C85.8687 13.4031 84.8018 13.9769 83.216 13.9769C81.1403 13.9769 79.8427 13.2308 79.6407 11.1354L75.9791 11.7097C76.5555 15.7561 80.1306 17.4212 83.3598 17.4212C86.4164 17.4212 89.6745 15.6415 89.6745 12.054C89.6745 9.61422 88.2036 7.83529 85.4646 7.31803L82.6682 6.80191C81.1109 6.51494 80.5921 5.73998 80.5921 4.99385C80.5921 4.04657 81.601 3.44435 82.9851 3.44435C84.7441 3.44435 85.9839 4.04657 86.0415 6.02695L89.7036 5.45301ZM8.3046 11.5943L12.1099 0.430314H16.5788L9.94715 16.9901H6.63176L0 0.430599H4.46892L8.3046 11.5943ZM31.6884 5.16604C31.6884 6.4861 30.6503 7.40441 29.4392 7.40441C28.2282 7.40441 27.1906 6.4861 27.1906 5.16604C27.1906 3.84569 28.2282 2.92767 29.4392 2.92767C30.6503 2.92767 31.6886 3.84569 31.6886 5.16604H31.6884ZM32.3802 11.0209C30.8806 12.9721 29.2948 14.321 26.498 14.3211C23.6443 14.3211 21.4236 12.5991 19.6937 10.0738C19.0015 9.04028 17.9347 8.81084 17.1561 9.35623C16.4354 9.87292 16.2627 10.9636 16.9255 11.9108C19.3185 15.5556 22.6342 17.6789 26.4978 17.6789C30.0446 17.6789 32.8128 15.9573 34.9749 13.0871C35.7821 12.0255 35.7532 10.9349 34.9749 10.3321C34.2539 9.75756 33.1871 9.9593 32.3802 11.0209ZM42.3289 8.66722C42.3289 12.054 44.2896 13.8337 46.4812 13.8337C48.5569 13.8337 50.6908 12.1688 50.6908 8.66722C50.6908 5.223 48.5569 3.55872 46.5097 3.55872C44.2896 3.55872 42.3289 5.1372 42.3289 8.66722ZM42.3289 2.72679V0.458869H38.2637V22.7303H42.3289V14.8088C43.6841 16.646 45.4429 17.4212 47.4321 17.4212C51.1521 17.4212 54.7848 14.4936 54.7848 8.46677C54.7848 2.69752 51.0077 0.000284515 47.7783 0.000284515C45.212 0.000284515 43.4536 1.17672 42.3289 2.72679ZM61.85 8.66722C61.85 12.054 63.8104 13.8337 66.002 13.8337C68.0776 13.8337 70.2113 12.1688 70.2113 8.66722C70.2113 5.223 68.0776 3.55872 66.0306 3.55872C63.8104 3.55872 61.8497 5.1372 61.8497 8.66722H61.85ZM61.85 2.72679V0.458869H61.8497H57.7844V22.7303H61.8497V14.8088C63.205 16.646 64.9636 17.4212 66.953 17.4212C70.6727 17.4212 74.3057 14.4936 74.3057 8.46677C74.3057 2.69752 70.5286 0.000284515 67.299 0.000284515C64.7328 0.000284515 62.9745 1.17672 61.85 2.72679Z" fill="black"/>
</svg>
