<svg width="22" height="23" viewBox="0 0 22 23" fill="none" xmlns="http://www.w3.org/2000/svg">
<path d="M11 0.343998C12.472 0.343998 13.648 0.759999 14.528 1.592C15.328 2.376 15.856 3.504 16.112 4.976L16.184 5.6H20.336L21.56 22.856H0.44L1.688 5.6H5.816C5.864 5.2 5.936 4.824 6.032 4.472C6.336 3.16 6.896 2.152 7.712 1.448C8.56 0.711998 9.656 0.343998 11 0.343998ZM18.92 7.088H16.256C16.256 7.36 16.248 7.568 16.232 7.712L16.208 8.576V10.856H14.72V8.48L14.744 7.976V7.088H7.256V7.376L7.28 7.712V10.856H5.792V8.144L5.744 7.088H3.08L2.048 21.344H19.952L18.92 7.088ZM11 1.856C10.024 1.856 9.248 2.112 8.672 2.624C8.128 3.104 7.736 3.832 7.496 4.808C7.432 5.064 7.384 5.328 7.352 5.6H14.672L14.624 5.216C14.432 4.08 14.056 3.24 13.496 2.696C12.92 2.136 12.088 1.856 11 1.856Z" fill="white"/>
</svg>
