<svg width="23" height="23" viewBox="0 0 23 23" fill="none" xmlns="http://www.w3.org/2000/svg">
<path d="M12 0.343998C13.472 0.343998 14.648 0.759999 15.528 1.592C16.328 2.376 16.856 3.504 17.112 4.976L17.184 5.6H21.336L22.56 22.856H1.44L2.688 5.6H6.816C6.864 5.2 6.936 4.824 7.032 4.472C7.336 3.16 7.896 2.152 8.712 1.448C9.56 0.711998 10.656 0.343998 12 0.343998ZM19.92 7.088H17.256C17.256 7.36 17.248 7.568 17.232 7.712L17.208 8.576V10.856H15.72V8.48L15.744 7.976V7.088H8.256V7.376L8.28 7.712V10.856H6.792V8.144L6.744 7.088H4.08L3.048 21.344H20.952L19.92 7.088ZM12 1.856C11.024 1.856 10.248 2.112 9.672 2.624C9.128 3.104 8.736 3.832 8.496 4.808C8.432 5.064 8.384 5.328 8.352 5.6H15.672L15.624 5.216C15.432 4.08 15.056 3.24 14.496 2.696C13.92 2.136 13.088 1.856 12 1.856Z" fill="black"/>
</svg>
