<svg width="24" height="24" viewBox="0 0 24 24" fill="none" xmlns="http://www.w3.org/2000/svg">
<path d="M17.592 1.856C15.448 1.904 13.632 2.624 12.144 4.016L12 4.16L11.856 4.016C10.32 2.576 8.416 1.856 6.144 1.856C5.056 1.856 4.024 2.176 3.048 2.816C2.136 3.424 1.4 4.232 0.84 5.24C0.28 6.232 0 7.272 0 8.36C0 9.432 0.12 10.328 0.36 11.048C0.616 11.832 1.08 12.64 1.752 13.472C2.408 14.272 3.4 15.272 4.728 16.472L7.728 19.16C9.488 20.744 10.736 21.904 11.472 22.64L12 23.144L12.528 22.64C14.4 20.8 16.256 19.088 18.096 17.504L18.792 16.904C20.04 15.848 21.032 14.88 21.768 14C22.552 13.088 23.12 12.184 23.472 11.288C23.824 10.376 24 9.4 24 8.36C24 7.272 23.72 6.232 23.16 5.24C22.6 4.232 21.864 3.424 20.952 2.816C19.976 2.176 18.944 1.856 17.856 1.856H17.592ZM17.856 3.344C18.672 3.344 19.448 3.592 20.184 4.088C20.872 4.552 21.432 5.176 21.864 5.96C22.296 6.728 22.512 7.528 22.512 8.36C22.512 9.608 22.176 10.776 21.504 11.864C20.832 12.952 19.688 14.184 18.072 15.56L17.112 16.376C15.64 17.624 13.992 19.128 12.168 20.888L12 21.056L11.328 20.408L8.232 17.576L5.736 15.368C4.504 14.264 3.6 13.368 3.024 12.68C2.432 11.96 2.024 11.272 1.8 10.616C1.608 10.024 1.512 9.272 1.512 8.36C1.512 7.528 1.72 6.728 2.136 5.96C2.568 5.176 3.136 4.552 3.84 4.088C4.56 3.592 5.328 3.344 6.144 3.344C8.32 3.344 10.08 4.144 11.424 5.744L12 6.416L12.576 5.744C13.92 4.144 15.68 3.344 17.856 3.344Z" fill="black"/>
</svg>
