<svg width="50" height="52" viewBox="0 0 50 52" fill="none" xmlns="http://www.w3.org/2000/svg">
<rect x="0.5" y="1" width="49" height="49" rx="24.5" stroke="black" stroke-opacity="0.2"/>
<path fill-rule="evenodd" clip-rule="evenodd" d="M35 22.2024V29.7612C34.9626 30.0591 34.9251 30.357 34.9251 30.6549C34.7754 33.8572 32.8736 35.9052 29.7032 36.3515C29.2186 36.4263 28.7341 36.4636 28.2859 36.5H20.7141C20.4156 36.4636 20.1172 36.4263 19.8562 36.4263C16.6484 36.2768 14.5604 34.3783 14.1497 31.2134C14.0749 30.7296 14.0374 30.2449 14 29.7986V22.2398C14.0374 21.9419 14.0749 21.644 14.0749 21.3461C14.2246 18.1438 16.1264 16.0585 19.2968 15.6494C19.7814 15.5747 20.2669 15.5374 20.7141 15.5H28.2859C28.5844 15.5374 28.8828 15.5747 29.1438 15.5747C32.3516 15.7232 34.4406 17.6227 34.8513 20.7876C34.8877 21.2713 34.9251 21.7561 35 22.2024ZM24.4813 17.4359C22.9892 17.4359 21.5345 17.3995 20.0424 17.4733C19.3716 17.5116 18.6261 17.6601 18.0292 17.9206C16.5371 18.5902 15.9777 19.8939 15.9393 21.4208C15.9028 24.4736 15.9028 27.5274 15.9393 30.5802C15.9393 31.2134 16.1264 31.8839 16.3874 32.4797C17.0591 33.9683 18.4015 34.5267 19.9311 34.5641C22.9527 34.6015 25.9734 34.6388 28.9941 34.5641C31.4563 34.5267 32.9485 33.0382 32.9859 30.5802C33.0607 27.5647 33.0233 24.511 32.9859 21.4581C32.9859 20.825 32.7997 20.1544 32.5378 19.5586C31.8296 18.0327 30.4862 17.5116 28.9202 17.4733C27.4281 17.3995 25.936 17.4359 24.4813 17.4359Z" fill="#333333"/>
<path fill-rule="evenodd" clip-rule="evenodd" d="M30 26.0188C30 29.1021 27.5342 31.5 24.4624 31.5C21.4278 31.5 19 29.0257 19 25.9424C19 22.8983 21.4658 20.4623 24.5005 20.5004C27.5722 20.4623 30 22.9365 30 26.0188ZM28.065 25.9806C28.065 24.0018 26.4725 22.4029 24.5005 22.4029C22.5275 22.4029 20.935 24.0018 20.935 25.9806C20.935 27.9604 22.5275 29.5584 24.5005 29.5584C26.4725 29.5584 28.065 27.9604 28.065 25.9806Z" fill="#333333"/>
<path fill-rule="evenodd" clip-rule="evenodd" d="M32 20.9568C32 21.7936 31.3383 22.5 30.4994 22.5C29.706 22.5 29 21.8378 29 21.0453C29 20.2073 29.6617 19.5021 30.4994 19.5021C31.294 19.4579 32 20.1201 32 20.9568Z" fill="#333333"/>
</svg>
