<svg width="118" height="40" viewBox="0 0 118 40" fill="none" xmlns="http://www.w3.org/2000/svg">
<path fill-rule="evenodd" clip-rule="evenodd" d="M38.6064 26.0431C38.2021 25.9713 37.7928 25.9151 37.3936 25.8205C33.7926 24.996 31.0816 21.8311 30.7254 18.0487C30.2782 13.2852 33.4692 9.02881 38.0353 8.34923C40.116 8.03654 42.0722 8.45499 43.8622 9.61373C43.9216 9.6529 43.981 9.69142 44.0454 9.73059C44.0618 9.74168 44.0783 9.74168 44.1263 9.75278V8.73896H48.9994V25.5587H44.1376V24.5449C43.6633 24.8008 43.2319 25.0625 42.779 25.2741C41.9433 25.6755 41.0596 25.9092 40.1375 25.9935C40.0781 25.9987 40.0187 26.0268 39.96 26.0379C39.5071 26.0431 39.0542 26.0431 38.6064 26.0431ZM44.1212 16.9677C44.0726 16.7281 44.0353 16.277 43.9001 15.8585C42.9571 12.8837 39.2216 11.8418 36.8055 13.8642C34.79 15.5524 34.7521 18.6108 36.7253 20.3492C38.3209 21.7534 40.7034 21.854 42.3905 20.5614C43.4902 19.731 44.0675 18.5945 44.1212 16.9677Z" fill="black"/>
<path fill-rule="evenodd" clip-rule="evenodd" d="M90.4319 26.0431C89.8331 25.9204 89.2178 25.8649 88.6462 25.6698C85.1974 24.5003 83.0879 22.0719 82.5643 18.3572C81.8789 13.4945 85.1108 9.08349 89.8167 8.35386C91.911 8.03082 93.875 8.45437 95.6778 9.62386C95.7373 9.66302 95.7961 9.70152 95.8612 9.74068C95.872 9.74655 95.8935 9.74655 95.9308 9.74655V8.73826H100.788V25.553H95.9529V24.5283C95.8669 24.5675 95.8075 24.5779 95.7645 24.6119C94.5871 25.397 93.3085 25.8649 91.911 25.9928C91.868 25.9987 91.83 26.0209 91.787 26.0379C91.3336 26.0431 90.8803 26.0431 90.4319 26.0431ZM91.2736 12.821C91.0421 12.8595 90.5944 12.8935 90.1784 13.0266C88.6026 13.5285 87.5181 14.5811 87.1564 16.2682C86.8054 17.9062 87.3183 19.2983 88.5431 20.3842C90.308 21.9551 93.0543 21.8272 94.7066 20.1284C96.1742 18.6189 96.3247 16.2799 95.0461 14.6033C94.1451 13.4058 92.931 12.8543 91.2736 12.821Z" fill="black"/>
<path fill-rule="evenodd" clip-rule="evenodd" d="M19.9519 1C19.9147 2.44258 19.7986 3.8695 19.4971 5.27879C18.7288 8.88263 17.1136 12.0021 14.6723 14.6484C14.619 14.7097 14.5662 14.7711 14.5029 14.8436C16.9441 18.3364 19.3804 21.8293 21.8427 25.3607C21.7261 25.3724 21.6522 25.3829 21.5784 25.3829C19.5548 25.3829 17.5374 25.3888 15.5144 25.3777C15.4033 25.3777 15.2494 25.3111 15.1911 25.2164C12.5805 21.4892 9.97482 17.7568 7.36915 14.0185C7.35302 13.9969 7.34309 13.9689 7.31641 13.9186C7.56524 13.7182 7.81905 13.5283 8.06851 13.3168C9.00553 12.5152 10.0114 11.7848 10.8597 10.8938C13.3742 8.24228 14.6401 5.00006 14.7195 1.25066C14.7195 1.1671 14.7152 1.08355 14.7096 1H19.9519Z" fill="black"/>
<path fill-rule="evenodd" clip-rule="evenodd" d="M6.68421 1C6.68421 1.1221 6.67828 1.23963 6.67828 1.36238V24.9777V25.3622C6.58266 25.3733 6.50419 25.3844 6.42506 25.3844H1.24794C1.16288 25.3844 1.08441 25.3622 1 25.3453V1H6.68421Z" fill="black"/>
<path fill-rule="evenodd" clip-rule="evenodd" d="M28.789 1C28.789 1.12221 28.7834 1.23984 28.7834 1.36271V24.9995V25.3844H23.7363V1H28.789Z" fill="black"/>
<path fill-rule="evenodd" clip-rule="evenodd" d="M108.999 23.0719C108.922 23.356 108.866 23.6522 108.767 23.9302C108.224 25.4381 106.681 26.3079 105.17 25.9715C103.648 25.6297 102.585 24.1449 102.691 22.5038C102.796 20.9028 104.041 19.5919 105.574 19.4642C107.245 19.3256 108.667 20.5025 108.944 22.2483C108.955 22.3122 108.977 22.3761 108.994 22.4393C108.999 22.6486 108.999 22.8572 108.999 23.0719Z" fill="black"/>
<path fill-rule="evenodd" clip-rule="evenodd" d="M63.5254 26.0203V8.75725H68.4225V10.6218C68.4942 10.5649 68.5319 10.5475 68.5537 10.5126C69.4986 9.25505 70.7595 8.58037 72.2449 8.35726C73.8993 8.10601 75.5204 8.2715 77.0269 9.07214C79.3421 10.3016 80.5378 12.2975 80.5595 15.013C80.5928 18.6329 80.571 22.2516 80.571 25.8769C80.571 25.9225 80.5653 25.9747 80.5595 26.0431H75.6349V25.7054C75.6349 22.8291 75.6457 19.9481 75.624 17.0719C75.6182 16.4883 75.5587 15.888 75.4059 15.3279C75.0783 14.081 74.2543 13.3547 73.042 13.1323C72.2501 12.9836 71.4581 13.0238 70.7051 13.3266C69.3617 13.8693 68.6899 14.9507 68.5377 16.4139C68.5102 16.6886 68.5102 16.9687 68.5102 17.2427V25.6484V26.0317C66.8283 26.0203 65.1913 26.0203 63.5254 26.0203Z" fill="black"/>
<path fill-rule="evenodd" clip-rule="evenodd" d="M56.3531 8.27161V10.4594C57.6138 8.93511 59.1841 8.31677 61.001 8.24902V13.2031C60.5439 13.2941 60.0818 13.3559 59.6406 13.4807C58.8524 13.7019 58.1442 14.1044 57.54 14.7055C56.7783 15.4593 56.3851 16.3825 56.39 17.5109C56.4005 20.0162 56.3949 22.5161 56.3949 25.0214V25.384H51.5273V8.27161H56.3531Z" fill="black"/>
<path fill-rule="evenodd" clip-rule="evenodd" d="M104.936 12.9941C103.694 12.9941 102.684 11.9259 102.684 10.6048C102.684 9.30571 103.715 8.23751 104.967 8.24912C106.211 8.26073 107.242 9.34957 107.231 10.6384C107.211 11.9478 106.19 12.9941 104.936 12.9941ZM104.958 12.5542C105.958 12.5426 106.747 11.673 106.736 10.5829C106.726 9.51599 105.937 8.67872 104.947 8.67872C103.957 8.67872 103.136 9.57018 103.136 10.6268C103.136 11.7169 103.936 12.5645 104.958 12.5542Z" fill="black"/>
<path fill-rule="evenodd" clip-rule="evenodd" d="M105.136 9.56738C105.24 9.56738 105.318 9.57816 105.412 9.61317C105.488 9.63607 105.554 9.68186 105.62 9.72765C105.684 9.77344 105.724 9.83136 105.75 9.90004C105.776 9.97008 105.79 10.0388 105.79 10.1075C105.79 10.2219 105.764 10.3256 105.71 10.4064C105.66 10.4873 105.566 10.5546 105.436 10.6017C105.502 10.6125 105.542 10.6354 105.58 10.6704C105.62 10.7054 105.646 10.7391 105.672 10.7741C105.698 10.8199 105.71 10.8549 105.724 10.9115C105.738 10.9573 105.738 11.0152 105.75 11.061V11.1755C105.75 11.2226 105.75 11.2563 105.764 11.3034C105.764 11.3479 105.776 11.3829 105.79 11.4287C105.804 11.4637 105.814 11.4987 105.842 11.5324H105.358C105.332 11.4758 105.318 11.3937 105.306 11.3142C105.306 11.2334 105.294 11.1418 105.28 11.0731C105.268 10.9694 105.228 10.9007 105.174 10.8549C105.122 10.8078 105.032 10.7849 104.914 10.7849H104.43V11.5445H103.947V9.59028H105.136V9.56738ZM104.954 10.4522C105.07 10.4522 105.15 10.4293 105.202 10.3822C105.254 10.3364 105.28 10.2691 105.28 10.164C105.28 10.0724 105.254 10.0037 105.202 9.95796C105.15 9.91217 105.058 9.88927 104.954 9.88927H104.418V10.4401H104.954V10.4522Z" fill="black"/>
</svg>
