<svg width="91" height="26" viewBox="0 0 91 26" fill="none" xmlns="http://www.w3.org/2000/svg">
<path d="M7.09293 10.7052C7.09293 11.78 8.52985 12.5934 11.3884 13.1454C13.5132 13.5666 15.0724 14.1912 16.0355 15.0482C16.9985 15.9052 17.4877 17.0381 17.4877 18.4906C17.4877 20.161 16.8304 21.5409 15.5463 22.6303C14.2623 23.7197 12.489 24.2571 10.2878 24.2571C8.17826 24.2571 6.43561 23.7633 5.04455 22.7901C3.65348 21.8169 2.62929 20.5677 1.94141 19.0571L5.656 16.8202C6.06874 17.9677 6.68019 18.8683 7.47509 19.5364C8.26998 20.2191 9.23302 20.5532 10.3642 20.5532C11.1285 20.5532 11.7859 20.3789 12.3667 20.0448C12.9476 19.7107 13.2381 19.2314 13.2381 18.6359C13.2381 18.0839 12.9323 17.6337 12.3209 17.2851C11.7094 16.951 10.7158 16.6459 9.34003 16.399C5.10569 15.6147 2.98088 13.799 2.98088 10.9811C2.98088 9.42695 3.6382 8.19231 4.96812 7.29176C6.29803 6.3912 7.88782 5.94092 9.78333 5.94092C11.7247 5.94092 13.2686 6.28952 14.4304 6.98673C15.5922 7.68393 16.5552 8.78785 17.3195 10.2985L13.9718 12.1867C13.1463 10.1677 11.7706 9.15097 9.85977 9.15097C8.01011 9.18002 7.09293 9.6884 7.09293 10.7052Z" fill="black"/>
<path d="M44.9419 11.6491V23.763H40.3101V13.0435C40.3101 10.8792 39.3623 9.80436 37.4515 9.80436C36.3968 9.80436 35.5407 10.182 34.8987 10.9228C34.2567 11.6636 33.9204 12.7384 33.9204 14.1329V23.763H29.2886V13.1161C29.2886 10.9083 28.3103 9.80436 26.3536 9.80436C25.4058 9.80436 24.5804 10.182 23.9078 10.9373C23.2352 11.6926 22.8989 12.7384 22.8989 14.0602V23.763H18.2671V6.44906H22.8989V8.75855C24.1676 6.89934 25.9409 5.96973 28.188 5.96973C30.7408 5.96973 32.4223 6.95744 33.2631 8.93285C34.5624 6.95744 36.5038 5.96973 39.0719 5.96973C40.9368 5.96973 42.3738 6.47811 43.4132 7.50939C44.4527 8.54068 44.9419 9.90604 44.9419 11.6491Z" fill="black"/>
<path d="M46.8223 17.2123V6.46374H51.4541V16.2101C51.4541 18.8392 52.6922 20.161 55.1686 20.161C56.4374 20.161 57.4616 19.7252 58.2412 18.8392C59.0055 17.9531 59.403 16.8202 59.403 15.4112V6.44922H64.0348V23.7632H59.403V21.047C58.1801 23.1822 56.2387 24.257 53.5941 24.257C51.6069 24.257 49.9866 23.647 48.7331 22.4123C47.449 21.1777 46.8223 19.4347 46.8223 17.2123Z" fill="black"/>
<path d="M84.1062 2.23682V23.7631H79.4744V21.3228C78.9547 22.1798 78.2056 22.8916 77.212 23.429C76.2184 23.9809 75.0566 24.2424 73.742 24.2424C71.1739 24.2424 69.0338 23.4145 67.337 21.7586C65.6402 20.1027 64.7842 17.8804 64.7842 15.0916C64.7842 12.3463 65.6861 10.1385 67.4899 8.45358C69.2937 6.78319 71.3726 5.94073 73.7573 5.94073C76.4477 5.94073 78.3585 6.81223 79.4897 8.55525V2.23682H84.1062ZM70.9599 18.7228C71.9382 19.667 73.1611 20.1318 74.6286 20.1318C76.0961 20.1318 77.319 19.667 78.2974 18.7228C79.2757 17.7787 79.7649 16.5731 79.7649 15.1061C79.7649 13.639 79.2757 12.4335 78.2974 11.4893C77.319 10.5452 76.0961 10.0804 74.6286 10.0804C73.1611 10.0804 71.9382 10.5452 70.9599 11.4893C69.9816 12.4335 69.4924 13.639 69.4924 15.1061C69.4924 16.5731 69.9816 17.7787 70.9599 18.7228Z" fill="black"/>
<path d="M87.2548 5.70845C86.2765 5.70845 85.4663 4.95315 85.4663 4.00901C85.4663 3.06488 86.2612 2.30957 87.2548 2.30957C88.2332 2.30957 89.0433 3.06488 89.0433 4.00901C89.0433 4.95315 88.2332 5.70845 87.2548 5.70845ZM87.2548 2.48387C86.3682 2.48387 85.6497 3.16655 85.6497 4.00901C85.6497 4.85147 86.3682 5.53415 87.2548 5.53415C88.1414 5.53415 88.8599 4.85147 88.8599 4.00901C88.8599 3.16655 88.1414 2.48387 87.2548 2.48387Z" fill="black"/>
<path d="M87.4538 3.19531C87.5302 3.19531 87.6067 3.20984 87.6678 3.22436C87.729 3.25341 87.7901 3.28246 87.836 3.32604C87.8818 3.36961 87.9124 3.41319 87.943 3.47129C87.9736 3.52939 87.9736 3.58749 87.9736 3.64559C87.9736 3.74727 87.9583 3.81989 87.9124 3.89252C87.8665 3.96514 87.8054 4.02325 87.6984 4.0523C87.7443 4.06682 87.7901 4.08135 87.8207 4.1104C87.8513 4.13945 87.8818 4.1685 87.8971 4.19755C87.9124 4.2266 87.9277 4.27017 87.943 4.31375C87.9583 4.35732 87.9583 4.4009 87.9583 4.44447C87.9583 4.47352 87.9583 4.50258 87.9583 4.53163C87.9583 4.56068 87.9583 4.60425 87.9736 4.6333C87.9736 4.67688 87.9888 4.70593 87.9888 4.73498C88.0041 4.76403 88.0041 4.79308 88.0347 4.82213H87.6525C87.6373 4.76403 87.622 4.70593 87.6067 4.6333C87.6067 4.56068 87.5914 4.48805 87.5914 4.42995C87.5761 4.3428 87.5455 4.2847 87.515 4.24112C87.4691 4.19755 87.408 4.18302 87.3009 4.18302H86.9188V4.82213H86.5366V3.19531H87.4538ZM87.3162 3.93609C87.408 3.93609 87.4691 3.92157 87.515 3.87799C87.5608 3.83442 87.5761 3.77632 87.5761 3.70369C87.5761 3.61654 87.5608 3.55844 87.515 3.52939C87.4691 3.50034 87.408 3.47129 87.3162 3.47129H86.9035V3.93609H87.3162Z" fill="black"/>
</svg>
