<svg width="24" height="23" viewBox="0 0 24 23" fill="none" xmlns="http://www.w3.org/2000/svg">
<path d="M6.864 11.888L6.264 11.192L5.712 11.696C4.368 12.848 3.264 14.304 2.4 16.064C1.536 17.824 0.992 19.736 0.768 21.8L0.648 22.64H23.352L23.256 21.8C23.032 19.848 22.52 18.032 21.72 16.352C20.936 14.656 19.936 13.224 18.72 12.056L18.168 11.552L17.64 12.104C16.936 12.856 16.128 13.432 15.216 13.832C14.32 14.216 13.368 14.408 12.36 14.408C11.288 14.408 10.28 14.192 9.336 13.76C8.408 13.328 7.584 12.704 6.864 11.888ZM6.168 13.328L6.288 13.448C7.12 14.248 8.048 14.856 9.072 15.272C10.112 15.688 11.208 15.896 12.36 15.896H12.6C13.592 15.88 14.544 15.696 15.456 15.344C16.368 14.992 17.208 14.496 17.976 13.856L18.168 13.664L18.288 13.784C19.12 14.696 19.816 15.768 20.376 17C20.952 18.216 21.36 19.528 21.6 20.936L21.648 21.128H2.352L2.4 20.96C2.656 19.456 3.096 18.056 3.72 16.76C4.36 15.464 5.136 14.352 6.048 13.424L6.168 13.328ZM12.36 0.343998C11.272 0.343998 10.264 0.615999 9.336 1.16C8.424 1.688 7.696 2.416 7.152 3.344C6.624 4.256 6.36 5.256 6.36 6.344C6.36 7.432 6.624 8.44 7.152 9.368C7.696 10.28 8.424 11.008 9.336 11.552C10.264 12.08 11.272 12.344 12.36 12.344C13.448 12.344 14.448 12.08 15.36 11.552C16.288 11.008 17.016 10.28 17.544 9.368C18.088 8.44 18.36 7.432 18.36 6.344C18.36 5.256 18.088 4.256 17.544 3.344C17.016 2.416 16.288 1.688 15.36 1.16C14.448 0.615999 13.448 0.343998 12.36 0.343998ZM12.36 1.856C13.176 1.856 13.928 2.056 14.616 2.456C15.304 2.856 15.848 3.4 16.248 4.088C16.648 4.776 16.848 5.528 16.848 6.344C16.848 7.16 16.648 7.912 16.248 8.6C15.848 9.288 15.304 9.84 14.616 10.256C13.928 10.656 13.176 10.856 12.36 10.856C11.544 10.856 10.792 10.656 10.104 10.256C9.416 9.84 8.864 9.288 8.448 8.6C8.048 7.912 7.848 7.16 7.848 6.344C7.848 5.528 8.048 4.776 8.448 4.088C8.864 3.4 9.416 2.856 10.104 2.456C10.792 2.056 11.544 1.856 12.36 1.856Z" fill="black"/>
</svg>
