<svg width="22" height="22" viewBox="0 0 22 22" fill="none" xmlns="http://www.w3.org/2000/svg">
<path d="M9.128 0.0879989C10.68 0.0879989 12.128 0.479999 13.472 1.264C14.768 2.032 15.8 3.064 16.568 4.36C17.352 5.704 17.744 7.16 17.744 8.728C17.744 9.768 17.568 10.76 17.216 11.704C16.864 12.648 16.368 13.504 15.728 14.272L21.656 20.176L20.576 21.256L14.672 15.328C13.92 15.968 13.064 16.464 12.104 16.816C11.16 17.168 10.168 17.344 9.128 17.344C7.56 17.344 6.104 16.952 4.76 16.168C3.464 15.4 2.44 14.368 1.688 13.072C0.904 11.728 0.512 10.28 0.512 8.728C0.512 7.16 0.904 5.704 1.688 4.36C2.44 3.064 3.464 2.032 4.76 1.264C6.104 0.479999 7.56 0.0879989 9.128 0.0879989ZM9.128 1.6C7.832 1.6 6.632 1.928 5.528 2.584C4.456 3.208 3.608 4.056 2.984 5.128C2.328 6.232 2 7.432 2 8.728C2 10.024 2.328 11.224 2.984 12.328C3.608 13.4 4.456 14.248 5.528 14.872C6.632 15.528 7.832 15.856 9.128 15.856C10.424 15.856 11.624 15.528 12.728 14.872C13.8 14.248 14.648 13.4 15.272 12.328C15.928 11.224 16.256 10.024 16.256 8.728C16.256 7.432 15.928 6.232 15.272 5.128C14.648 4.056 13.8 3.208 12.728 2.584C11.624 1.928 10.424 1.6 9.128 1.6Z" fill="black"/>
</svg>
