<svg width="50" height="52" viewBox="0 0 50 52" fill="none" xmlns="http://www.w3.org/2000/svg">
<rect x="0.5" y="1" width="49" height="49" rx="24.5" stroke="black" stroke-opacity="0.2"/>
<path fill-rule="evenodd" clip-rule="evenodd" d="M36 32.1132C35.7331 32.2623 35.5417 32.4498 35.3131 32.4873C34.741 32.6738 34.1307 32.8603 33.5213 32.9353C32.9865 33.0103 32.7579 33.2718 32.6431 33.7573C32.4527 34.5429 32.4527 34.5429 31.652 34.3929C30.1644 34.1314 28.8289 34.3929 27.6464 35.3274C26.8457 35.962 25.9685 36.411 24.8999 36.486C23.8705 36.561 22.9167 36.336 22.0777 35.7755C21.7726 35.589 21.5056 35.4024 21.2387 35.2159C20.0946 34.3179 18.7973 34.1689 17.3863 34.4304C16.6228 34.5804 16.5856 34.5804 16.4325 33.8698C16.3177 33.3093 16.0508 33.0478 15.4787 32.9728C14.9066 32.8978 14.3728 32.7113 13.839 32.5613C13.5711 32.4873 13.3807 32.2998 13 32.1132C13.419 32.0007 13.7242 31.9642 13.9911 31.8517C16.1273 31.1047 17.5001 29.6096 18.3391 27.628C18.6825 26.8809 18.4166 26.2829 17.6915 25.9089C17.4618 25.7974 17.2332 25.7224 16.9663 25.6099C16.6611 25.4983 16.3942 25.4233 16.089 25.2733C15.8221 25.1243 15.4021 25.0128 15.5935 24.6388C15.7456 24.3023 16.1273 24.2648 16.509 24.4138C16.8525 24.5263 17.2332 24.6388 17.6149 24.6763C18.4166 24.7503 18.6825 24.4513 18.6453 23.6667C18.607 22.6957 18.5304 21.7236 18.5687 20.7516C18.6453 18.4344 19.865 16.8653 22.0012 16.0423C24.4426 15.1087 26.8457 15.3327 28.9054 17.0883C30.393 18.3594 30.7365 20.042 30.6217 21.8351C30.5834 22.5082 30.5834 23.2177 30.5068 23.8908C30.4686 24.3398 30.6599 24.5638 31.0416 24.6013C31.4989 24.6013 31.9572 24.4888 32.4527 24.4138C32.7579 24.3773 33.0631 24.3398 33.33 24.4138C33.6734 24.5263 33.75 24.7878 33.4065 25.0128C33.0631 25.1993 32.7196 25.3858 32.3379 25.4983C30.5451 26.0964 30.2399 26.7684 31.1937 28.376C32.2623 30.1701 33.6734 31.5152 35.8479 31.9642C35.8469 32.0007 35.8852 32.0382 36 32.1132Z" fill="#333333"/>
</svg>
