<svg width="93" height="40" viewBox="0 0 93 40" fill="none" xmlns="http://www.w3.org/2000/svg">
<path fill-rule="evenodd" clip-rule="evenodd" d="M90.7036 12.453C89.6942 8.5495 87.2436 7 83.8984 7C81.1882 7 77.7866 8.5495 77.7866 12.2808C77.7866 14.6914 79.4297 16.586 82.1109 17.0741L84.6482 17.533C86.3784 17.8485 86.8687 18.5088 86.8687 19.3985C86.8687 20.4031 85.8018 20.9769 84.216 20.9769C82.1403 20.9769 80.8427 20.2308 80.6407 18.1354L76.9791 18.7097C77.5555 22.7561 81.1306 24.4212 84.3598 24.4212C87.4164 24.4212 90.6745 22.6415 90.6745 19.054C90.6745 16.6142 89.2036 14.8353 86.4646 14.318L83.6682 13.8019C82.1109 13.5149 81.5921 12.74 81.5921 11.9939C81.5921 11.0466 82.601 10.4444 83.9851 10.4444C85.7441 10.4444 86.9839 11.0466 87.0415 13.0269L90.7036 12.453ZM9.3046 18.5943L13.1099 7.43031H17.5788L10.9472 23.9901H7.63176L1 7.4306H5.46892L9.3046 18.5943ZM32.6884 12.166C32.6884 13.4861 31.6503 14.4044 30.4392 14.4044C29.2282 14.4044 28.1906 13.4861 28.1906 12.166C28.1906 10.8457 29.2282 9.92767 30.4392 9.92767C31.6503 9.92767 32.6886 10.8457 32.6886 12.166H32.6884ZM33.3802 18.0209C31.8806 19.9721 30.2948 21.321 27.498 21.3211C24.6443 21.3211 22.4236 19.5991 20.6937 17.0738C20.0015 16.0403 18.9347 15.8108 18.1561 16.3562C17.4354 16.8729 17.2627 17.9636 17.9255 18.9108C20.3185 22.5556 23.6342 24.6789 27.4978 24.6789C31.0446 24.6789 33.8128 22.9573 35.9749 20.0871C36.7821 19.0255 36.7532 17.9349 35.9749 17.3321C35.2539 16.7576 34.1871 16.9593 33.3802 18.0209ZM43.3289 15.6672C43.3289 19.054 45.2896 20.8337 47.4812 20.8337C49.5569 20.8337 51.6908 19.1688 51.6908 15.6672C51.6908 12.223 49.5569 10.5587 47.5097 10.5587C45.2896 10.5587 43.3289 12.1372 43.3289 15.6672ZM43.3289 9.72679V7.45887H39.2637V29.7303H43.3289V21.8088C44.6841 23.646 46.4429 24.4212 48.4321 24.4212C52.1521 24.4212 55.7848 21.4936 55.7848 15.4668C55.7848 9.69752 52.0077 7.00028 48.7783 7.00028C46.212 7.00028 44.4536 8.17672 43.3289 9.72679ZM62.85 15.6672C62.85 19.054 64.8104 20.8337 67.002 20.8337C69.0776 20.8337 71.2113 19.1688 71.2113 15.6672C71.2113 12.223 69.0776 10.5587 67.0306 10.5587C64.8104 10.5587 62.8497 12.1372 62.8497 15.6672H62.85ZM62.85 9.72679V7.45887H62.8497H58.7844V29.7303H62.8497V21.8088C64.205 23.646 65.9636 24.4212 67.953 24.4212C71.6727 24.4212 75.3057 21.4936 75.3057 15.4668C75.3057 9.69752 71.5286 7.00028 68.299 7.00028C65.7328 7.00028 63.9745 8.17672 62.85 9.72679Z" fill="black"/>
</svg>
